<svg xmlns="http://www.w3.org/2000/svg" width="691.315" height="531.592" data-name="Layer 1"><path fill="#2f2e41" d="M107.413 17.69c5.203.976 8.829 7.267 10.125 13.644s.875 13.082 1.4 19.629 2.303 13.499 6.659 17.19c-4.553-.843-8.713-4.515-10.873-9.597a7.602 7.602 0 0 1-2.498 6.93 14.102 14.102 0 0 1-6.062 2.667l-17.74 4.576c-3.223.831-6.634 1.65-9.744.304-3.987-1.726-6.506-6.563-8.485-11.223a65.927 65.927 0 0 1-5.131-17.329c-.782-6.11-.227-12.65 2.332-17.947a22.906 22.906 0 0 1 14.635-11.955c5.844-1.639 11.913-1.287 17.895-.926 3.398.205 6.922.451 9.927 2.445"/><path fill="#a0616a" d="M103.603 504.233h12.399l5.899-47.826-18.3.001.002 47.825z"/><path fill="#2f2e41" d="M120.128 505.35v-8.406l-3.26.199-13.268.786-3.071.188-2.348 28.152-.126 1.51h8.804l.283-1.5 1.279-6.812 3.301 6.813.724 1.499h23.34a5.274 5.274 0 0 0 5.241-5.251c.985-4.602-18.425-14.548-20.899-17.179Z"/><path fill="#a0616a" d="m254.973 466.497 10.446-6.68-20.795-43.47-15.417 9.86 25.766 40.29z"/><path fill="#2f2e41" d="m269.496 458.535-4.528-7.082-2.639 1.924-10.755 7.81-2.486 1.814 13.189 24.982.707 1.34 7.417-4.744-.57-1.415-2.592-6.428 6.452 3.96 1.416.874 19.665-12.575a5.274 5.274 0 0 0 1.586-7.247c-1.649-4.407-23.36-2.33-26.862-3.213Z"/><path fill="#e6e6e6" d="M527.685 70.742H323.28a4.408 4.408 0 1 1 0-8.816h204.406a4.408 4.408 0 0 1 0 8.816Z"/><path fill="#6c63ff" d="M527.685 164.742H323.28a4.408 4.408 0 1 1 0-8.816h204.406a4.408 4.408 0 0 1 0 8.816Zm103.475-46.969H323.28a4.408 4.408 0 1 1 0-8.816h307.88a4.408 4.408 0 0 1 0 8.816Z"/><path fill="#3f3d56" d="M532.093 177.988a1 1 0 0 1-1-1V143.68a1 1 0 0 1 2 0v33.307a1 1 0 0 1-1 1ZM301.41 49.35a1 1 0 0 1 1-1h33.307a1 1 0 0 1 0 2H302.41a1 1 0 0 1-1-1Z"/><path fill="#3f3d56" d="M319.063 83.988a1 1 0 0 1-1-1V49.68a1 1 0 1 1 2 0v33.307a1 1 0 0 1-1 1Z"/><path fill="#2f2e41" d="m136.52 192.822-70.758 12.275.64 10.76s-13.611 46.446-6.339 60.493 12.741 50.834 12.741 50.834-26.982 143.37 5.638 146.268 71.747-.087 71.684-9.595-25.165-182.773-25.165-182.773 42.102 92.12 50.102 92.193 8 .073 8 7.073-10 1.512 0 11.756 23.89 55.16 35.945 54.702 67.307-33.316 67.181-41.387S136.52 192.822 136.52 192.822Z"/><path fill="#e6e6e6" d="m65.905 207.498 3.158-36.148-15.26-56.577s-3.158-28.218 6.051-30.32 12.549-2.268 12.549-2.268l6.211-11.835h20.977l10.472 10s14 9 14 13 14.914 83.425 12.457 85.213-3.08 4.163.231 4.475 9.312-1.688 5.312 2.312a24.545 24.545 0 0 0-5.543 9.653Z"/><path fill="#a0616a" d="M218.973 199.599a9.62 9.62 0 0 0-12.766-7.187l-32.892-34.883-11.886 6.726L200.8 205.4a9.606 9.606 0 0 0 18.174-5.801Z"/><path fill="#e6e6e6" d="M90.867 80.453s-5.875 22.45 3.154 30.298 16.109 16.21 20.683 17.99 26.325 28.09 30.616 28.21 1.95 5.459 8.184 6.954 7.893 1.21 8.177 2.87 18.004 18.966 18.004 18.966l12.83-11.633-61.604-78.916a40.47 40.47 0 0 0-40.044-14.74Z"/><path fill="#6c63ff" d="M241.945 192.567 54.54 274.184a4.408 4.408 0 1 1-3.52-8.083l187.405-81.617a4.408 4.408 0 0 1 3.52 8.083Z"/><path fill="#f2f2f2" d="M322.778 521.289a1.216 1.216 0 0 0 .882-2.108l-.084-.332.033-.08a3.267 3.267 0 0 1 6.026.023c.986 2.374 2.24 4.751 2.55 7.26a9.664 9.664 0 0 1-.17 3.324 38.744 38.744 0 0 0 3.524-16.091 37.395 37.395 0 0 0-.232-4.172q-.192-1.703-.533-3.382A39.193 39.193 0 0 0 327 489.12a10.43 10.43 0 0 1-4.337-4.5 7.956 7.956 0 0 1-.724-2.175 9.819 9.819 0 0 0 .637-3.386c.294-.447.821-.669 1.142-1.104 1.599-2.168 3.801-1.79 4.951 1.156 2.456 1.24 2.48 3.295.973 5.273-.959 1.258-1.09 2.96-1.932 4.306.087.111.177.219.263.33a39.446 39.446 0 0 1 4.117 6.522 16.398 16.398 0 0 1 .98-7.617c.936-2.26 2.693-4.164 4.24-6.118a3.366 3.366 0 0 1 5.994 1.652l.01.087q-.345.194-.675.413a1.65 1.65 0 0 0 .665 3.002l.034.005a16.417 16.417 0 0 1-.433 2.455c1.984 7.673-2.3 10.468-8.416 10.594-.135.069-.267.138-.402.204a40.263 40.263 0 0 1 2.168 10.2 38.19 38.19 0 0 1-.028 6.165l.01-.073a10.09 10.09 0 0 1 3.445-5.826c2.65-2.178 6.396-2.98 9.256-4.73a1.894 1.894 0 0 1 2.9 1.842l-.011.077a11.08 11.08 0 0 0-1.243.599q-.345.194-.675.412a1.65 1.65 0 0 0 .665 3.003l.034.005.07.01a16.431 16.431 0 0 1-3.023 4.733c-1.24 6.699-6.57 7.334-12.27 5.384h-.003a40.25 40.25 0 0 1-2.704 7.893h-9.659c-.035-.107-.066-.218-.097-.325a10.975 10.975 0 0 0 2.673-.16c-.717-.879-1.433-1.765-2.15-2.645a.6.6 0 0 1-.045-.052c-.364-.45-.73-.896-1.094-1.346a16.075 16.075 0 0 1 .47-4.096Z"/><path fill="#cacaca" d="m1.19 531.285 389.726.307a1.19 1.19 0 0 0 0-2.381l-389.725-.308a1.19 1.19 0 0 0 0 2.382Z"/><circle cx="89.276" cy="41.5" r="23.316" fill="#a0616a"/><path fill="#2f2e41" d="M79.126 42.91c-.042-1.958-3.246-2.27-4.424-.706s-.886 3.747-.537 5.674l2.507 13.858c.991 5.48 2.393 11.594 7.108 14.556-3.54 1.558-7.373 3.15-11.16 2.365s-7.03-5.12-5.213-8.534c-.904 2.58-1.863 5.255-4.117 6.973a5.2 5.2 0 0 1-5.042.88c-3.32-1.333-1.713-6.127-3.188-9.353-4.236-9.26-8.225-18.172-1.508-26.531.961-1.197.198-3.51.197-5.665-.006-11.629 11.854-21.938 23.183-24.56q.362-.084.696-.149a23.114 23.114 0 0 1 17.994 4.109c2.752-2.304 7.205-1.283 9.686 1.31s7.132 6.679 7.755 10.213-.725 6.853 1 10c-3.936.778-10.147-.513-13.073-3.259-1.886 3.655-6.744 4.332-10.856 4.43s-8.903.41-11.22 3.808"/><path fill="#f2f2f2" d="M343.763 0c-26.407.595-52.818 1.103-79.223 1.785-4.921.127-10.333.538-14.142 4.036-3.793 3.482-4.43 8.963-4.5 13.824-.191 13.02.126 26.066.198 39.086l.246 44.687c.01 1.93 2.451 1.854 3 0 7.63-25.797 26.275-51.594-.426-77.39-3.513-3.395-.682-10.605 1.481-15.165 2.26-4.764 7.444-5.777 12.24-6.01 6.156-.302 12.337-.303 18.498-.442l19.212-.433L343.763 3c1.928-.043 1.935-3.043 0-3ZM593.39 199.918c26.407-.595 52.818-1.102 79.223-1.785 4.921-.127 10.332-.538 14.142-4.035 3.793-3.483 4.43-8.964 4.5-13.825.191-13.02-.127-26.065-.198-39.086L690.81 96.5c-.01-1.93-2.783-1.921-3 0-2.909 25.798-31.097 51.599.426 77.39 3.78 3.094.681 10.605-1.482 15.165-2.26 4.764-7.444 5.777-12.24 6.011-6.155.3-12.336.303-18.497.442l-19.213.432-43.416.978c-1.927.043-1.934 3.043 0 3ZM402.385 478.807l-115.16-47.78a6.073 6.073 0 0 1-3.281-7.936l27.143-65.423a6.073 6.073 0 0 1 7.937-3.282l145.247 60.263a6.073 6.073 0 0 1 3.282 7.937l-14.66 35.335a38.647 38.647 0 0 1-50.508 20.886Z"/><path fill="#fff" d="m395.03 471.562-79.826-33.12a30.918 30.918 0 0 1-16.69-40.36l5.159-12.433a30.918 30.918 0 0 1 40.36-16.69l92.26 38.278a30.918 30.918 0 0 1 16.69 40.36 44.394 44.394 0 0 1-57.953 23.965Z"/><path fill="#e6e6e6" d="M389.909 409.945 344.486 391.1a1.566 1.566 0 1 1 1.2-2.893l45.423 18.846a1.566 1.566 0 0 1-1.2 2.893Zm-12.799 30.85-45.424-18.846a1.566 1.566 0 1 1 1.2-2.894l45.424 18.847a1.566 1.566 0 0 1-1.2 2.893Z"/><path fill="#f2f2f2" d="m417.464 439.47-79.382-32.936a1.566 1.566 0 1 1 1.2-2.893l79.383 32.935a1.566 1.566 0 0 1-1.2 2.894Zm-200.079-85.663-115.16-47.78a6.073 6.073 0 0 1-3.281-7.936l27.143-65.423a6.073 6.073 0 0 1 7.937-3.282l145.247 60.263a6.073 6.073 0 0 1 3.282 7.937l-14.66 35.335a38.647 38.647 0 0 1-50.508 20.886Z"/><path fill="#fff" d="m210.03 346.562-79.826-33.12a30.918 30.918 0 0 1-16.69-40.36l5.159-12.433a30.918 30.918 0 0 1 40.36-16.69l92.26 38.278a30.918 30.918 0 0 1 16.69 40.36 44.394 44.394 0 0 1-57.953 23.965Z"/><path fill="#e6e6e6" d="M204.909 284.945 159.486 266.1a1.566 1.566 0 1 1 1.2-2.893l45.423 18.846a1.566 1.566 0 0 1-1.2 2.893Zm-12.799 30.85-45.424-18.846a1.566 1.566 0 1 1 1.2-2.894l45.424 18.847a1.566 1.566 0 0 1-1.2 2.893Z"/><path fill="#f2f2f2" d="m232.464 314.47-79.382-32.936a1.566 1.566 0 1 1 1.2-2.893l79.383 32.935a1.566 1.566 0 0 1-1.2 2.894Z"/><path fill="#a0616a" d="M141.874 240.703a9.62 9.62 0 0 0-9.157-11.436l-17.479-44.645-13.537 1.799 21.147 52.874a9.606 9.606 0 0 0 19.026 1.408Z"/><path fill="#e6e6e6" d="M67.555 82.325s-13.836 18.63-8.393 29.282 8.886 21.056 12.465 24.415 13.925 35.892 17.86 37.605-.23 5.792 4.994 9.508 6.869 4.072 6.512 5.717 9.615 24.319 9.615 24.319l16.248-5.998-34.6-120.347Z"/></svg>